<svg width="20" height="20" viewBox="0 0 20 20" fill="none" xmlns="http://www.w3.org/2000/svg">
<g clip-path="url(#clip0_404_51236)">
<path d="M9.99349 14.5417C8.32682 14.5417 6.66015 14.5417 4.99349 14.5417C4.80466 14.5537 4.61538 14.5256 4.43817 14.4593C4.26096 14.393 4.09982 14.29 3.96525 14.157C3.83067 14.024 3.7257 13.864 3.65732 13.6876C3.58894 13.5112 3.55863 13.3223 3.56842 13.1334C3.56842 11.025 3.56842 8.92502 3.56842 6.82502C3.55048 6.64072 3.57344 6.45474 3.63566 6.28034C3.69787 6.10594 3.79789 5.94741 3.92842 5.81608C4.05896 5.68475 4.21685 5.58385 4.39086 5.52057C4.56488 5.45729 4.75069 5.43321 4.93509 5.45002H15.0935C15.2775 5.43471 15.4628 5.45983 15.6361 5.52363C15.8094 5.58744 15.9667 5.68839 16.0969 5.81939C16.2271 5.95039 16.327 6.10828 16.3898 6.282C16.4525 6.45571 16.4766 6.64105 16.4602 6.82502V13.175C16.4755 13.358 16.4505 13.5421 16.3871 13.7144C16.3237 13.8868 16.2235 14.0431 16.0932 14.1726C15.963 14.302 15.8061 14.4014 15.6333 14.4637C15.4606 14.526 15.2764 14.5498 15.0935 14.5334C13.3935 14.55 11.6935 14.5417 9.99349 14.5417ZM15.4102 7.04168L15.1434 7.25001L10.4185 11C10.3669 11.0599 10.3028 11.108 10.2309 11.141C10.159 11.1739 10.0809 11.191 10.0018 11.191C9.92273 11.191 9.84455 11.1739 9.77264 11.141C9.70073 11.108 9.63679 11.0599 9.58516 11L4.78515 7.19169L4.5934 7.04168V13.1417C4.5934 13.5 4.59348 13.5417 4.98514 13.5417H14.9851C15.3351 13.5417 15.3768 13.5 15.3768 13.15V7.04168H15.4102ZM5.61849 6.52502L5.76843 6.65001C7.12676 7.72501 8.49344 8.80835 9.84344 9.89168C9.86296 9.91601 9.88774 9.93566 9.91587 9.94915C9.94399 9.96265 9.9748 9.96965 10.006 9.96965C10.0372 9.96965 10.0679 9.96265 10.096 9.94915C10.1241 9.93566 10.1489 9.91601 10.1685 9.89168L14.2351 6.65835L14.3768 6.53335L5.61849 6.52502Z" fill="white"/>
<path d="M17.5917 3.51667C16.0773 1.70869 13.9618 0.507439 11.6333 0.133336C11.3 0.075003 10.9583 0.0416667 10.625 0H9.375C9.00833 0.05 8.64162 0.0916687 8.28328 0.158335C6.24062 0.51401 4.35899 1.49582 2.89886 2.9679C1.43873 4.43997 0.472282 6.32951 0.13326 8.375C0.0832601 8.70834 0.05 9.04167 0 9.375V10.625C0.0583333 11 0.0916178 11.375 0.158285 11.7417C0.543392 13.9748 1.68863 16.0062 3.39996 17.4917C4.86785 18.8207 6.70987 19.6646 8.67493 19.9083C10.6775 20.1703 12.7125 19.8197 14.512 18.9028C16.3115 17.9858 17.7912 16.5455 18.7563 14.7713C19.7214 12.9972 20.1267 10.9724 19.9188 8.96342C19.7109 6.95449 18.8996 5.05559 17.5917 3.51667ZM16.45 13.1833C16.4653 13.3663 16.4404 13.5504 16.3771 13.7228C16.3137 13.8951 16.2133 14.0514 16.0831 14.1809C15.9528 14.3103 15.7959 14.4097 15.6232 14.472C15.4505 14.5343 15.2662 14.5581 15.0833 14.5417C13.4166 14.5417 11.6917 14.5417 9.99166 14.5417C8.29166 14.5417 6.65833 14.5417 4.99166 14.5417C4.80283 14.5537 4.61355 14.5256 4.43634 14.4593C4.25913 14.393 4.09799 14.29 3.96342 14.157C3.82885 14.024 3.72388 13.864 3.6555 13.6876C3.58712 13.5112 3.55681 13.3223 3.56659 13.1333C3.56659 11.025 3.56659 8.925 3.56659 6.825C3.54866 6.64071 3.57161 6.45473 3.63383 6.28033C3.69605 6.10593 3.79606 5.9474 3.9266 5.81607C4.05713 5.68474 4.21502 5.58383 4.38904 5.52055C4.56306 5.45728 4.74887 5.4332 4.93327 5.45001H15.0917C15.2757 5.43469 15.4609 5.45981 15.6343 5.52362C15.8076 5.58742 15.9649 5.68837 16.0951 5.81937C16.2253 5.95037 16.3252 6.10826 16.3879 6.28198C16.4507 6.4557 16.4748 6.64103 16.4583 6.825L16.45 13.1833Z" fill="#EAB308"/>
<path d="M10.4149 10.975C10.3633 11.0349 10.2993 11.083 10.2274 11.116C10.1554 11.1489 10.0774 11.166 9.99827 11.166C9.91917 11.166 9.84099 11.1489 9.76908 11.116C9.69718 11.083 9.63324 11.0349 9.5816 10.975L4.7816 7.16667L4.58984 7.01666V13.1167C4.58984 13.475 4.58992 13.5167 4.98159 13.5167H14.9816C15.3316 13.5167 15.3732 13.475 15.3732 13.125V7.01666L15.1066 7.225L10.4149 10.975Z" fill="#EAB308"/>
<path d="M9.84214 9.86663C9.86166 9.89097 9.88645 9.91061 9.91457 9.92411C9.9427 9.9376 9.9735 9.94461 10.0047 9.94461C10.0359 9.94461 10.0666 9.9376 10.0947 9.92411C10.1229 9.91061 10.1476 9.89097 10.1672 9.86663L14.2338 6.63331L14.3755 6.5083H5.61719L5.76713 6.63331C7.14213 7.69998 8.49214 8.7833 9.84214 9.86663Z" fill="#EAB308"/>
</g>
<defs>
<clipPath id="clip0_404_51236">
<rect width="20" height="20" fill="white"/>
</clipPath>
</defs>
</svg>
