<svg width="20" height="20" viewBox="0 0 20 20" fill="none" xmlns="http://www.w3.org/2000/svg">
<path d="M10.6068 20H9.37351H9.20684C7.94512 19.9106 6.71337 19.5737 5.58186 19.0084C3.72421 18.0999 2.19608 16.6347 1.21027 14.8169C0.224448 12.9991 -0.170023 10.9192 0.081828 8.86665C0.222244 7.50984 0.649217 6.19834 1.33447 5.0189C2.01973 3.83945 2.94766 2.81898 4.05684 2.02502C5.61157 0.851317 7.47965 0.165353 9.42448 0.054093C11.3693 -0.0571674 13.3034 0.411281 14.9818 1.40002C16.2617 2.11606 17.3629 3.11246 18.2028 4.31465C19.0428 5.51684 19.5997 6.89359 19.8318 8.34165C19.8985 8.69998 19.9402 9.05836 19.9818 9.42502V10.675C19.9778 10.7249 19.9778 10.775 19.9818 10.825C19.8618 12.5122 19.3015 14.1385 18.3569 15.5417C17.6161 16.6801 16.6483 17.6533 15.5141 18.4003C14.3798 19.1474 13.1036 19.6523 11.7652 19.8833C11.3485 19.9166 10.9735 19.95 10.6068 20ZM14.6152 6.81669C14.6152 6.19169 14.3569 5.98333 13.8735 6.06667C13.5052 6.1464 13.1453 6.26083 12.7985 6.40836L4.31518 9.99163C4.1847 10.0489 4.06159 10.1216 3.94851 10.2083C3.68184 10.4166 3.70685 10.65 4.00685 10.8083C4.07784 10.85 4.15333 10.8835 4.23186 10.9083C4.78186 11.0749 5.32353 11.2584 5.89853 11.4C6.13288 11.4569 6.37471 11.4766 6.61518 11.4583C6.94528 11.4178 7.25726 11.285 7.5152 11.075L10.5485 9.04996L11.6068 8.35833C11.7152 8.29167 11.8402 8.225 11.9402 8.35833C12.0402 8.49167 11.9402 8.58333 11.8568 8.66666C11.7735 8.75 11.5235 9.02501 11.3402 9.20001L8.91519 11.5084C8.7962 11.6207 8.68742 11.7434 8.59018 11.875C8.51914 11.9582 8.48371 12.066 8.49151 12.1752C8.4993 12.2843 8.54968 12.3861 8.63184 12.4584C8.75502 12.5925 8.89508 12.7101 9.0485 12.8083C9.96517 13.4333 10.8818 14.0583 11.8068 14.675C11.993 14.8048 12.1946 14.9112 12.4069 14.9916C12.4956 15.0341 12.5925 15.0565 12.6909 15.0571C12.7892 15.0577 12.8865 15.0366 12.9757 14.9952C13.0649 14.9538 13.1439 14.8931 13.2069 14.8176C13.2699 14.7421 13.3154 14.6535 13.3402 14.5583C13.4237 14.3578 13.4824 14.1479 13.5152 13.9333C13.8152 12.175 14.1152 10.4166 14.3985 8.64998C14.4735 8.03331 14.5485 7.35002 14.6152 6.81669Z" fill="#4FADF1"/>
</svg>
