<svg width="20" height="20" viewBox="0 0 20 20" fill="none" xmlns="http://www.w3.org/2000/svg">
<g clip-path="url(#clip0_404_51231)">
<path d="M10 20C15.5228 20 20 15.5228 20 10C20 4.47715 15.5228 0 10 0C4.47715 0 0 4.47715 0 10C0 15.5228 4.47715 20 10 20Z" fill="#4FC600"/>
<path fill-rule="evenodd" clip-rule="evenodd" d="M14.8102 5.31258C13.7229 4.22242 12.2761 3.56496 10.7398 3.46278C9.20342 3.36061 7.68235 3.8207 6.4602 4.75726C5.23804 5.69382 4.39823 7.04292 4.09738 8.55298C3.79652 10.063 4.05515 11.631 4.82504 12.9644L3.92578 16.2504L7.28726 15.3689C8.21805 15.8748 9.26048 16.1401 10.3199 16.1407C11.5744 16.1408 12.8008 15.7689 13.8441 15.0721C14.8873 14.3752 15.7004 13.3847 16.1807 12.2257C16.661 11.0667 16.7869 9.79134 16.5424 8.56083C16.298 7.33032 15.6941 6.19993 14.8073 5.31258H14.8102ZM10.3213 15.0696C9.37683 15.0674 8.45023 14.8116 7.63837 14.3289L7.44578 14.2148L5.45023 14.7378L5.97467 12.7985L5.85616 12.6C5.23503 11.6097 4.96064 10.441 5.07611 9.27769C5.19158 8.11441 5.69037 7.02249 6.49406 6.17358C7.29775 5.32467 8.36077 4.76693 9.516 4.58802C10.6712 4.40912 11.8532 4.6192 12.876 5.18525C13.8988 5.75129 14.7045 6.6412 15.1664 7.71506C15.6283 8.78893 15.7203 9.98586 15.4278 11.1177C15.1353 12.2495 14.475 13.252 13.5507 13.9677C12.6263 14.6833 11.4903 15.0714 10.3213 15.0711V15.0696ZM13.2147 11.1185C13.0562 11.0385 12.2769 10.6563 12.1317 10.6029C11.9865 10.5496 11.8799 10.5244 11.7747 10.683C11.6695 10.8415 11.3658 11.1985 11.2725 11.3037C11.1791 11.4089 11.0873 11.4222 10.9287 11.3437C10.4619 11.1567 10.0309 10.8906 9.65468 10.557C9.30556 10.2372 9.00598 9.86724 8.76579 9.45924C8.67245 9.30073 8.75541 9.2148 8.83541 9.13628C8.91541 9.05776 8.99393 8.9511 9.07245 8.85776C9.13831 8.77999 9.1927 8.69319 9.23393 8.59999C9.25474 8.55603 9.2644 8.50763 9.26207 8.45906C9.25975 8.41049 9.2455 8.36323 9.22059 8.32147C9.18059 8.24295 8.86356 7.46221 8.73171 7.14517C8.59986 6.82813 8.47245 6.87851 8.37616 6.87406C8.27986 6.86962 8.17764 6.87406 8.07097 6.87406C7.99073 6.87634 7.91181 6.89514 7.83916 6.9293C7.76651 6.96346 7.70169 7.01223 7.64874 7.07258C7.46976 7.24235 7.32806 7.44752 7.23267 7.67502C7.13728 7.90253 7.09028 8.1474 7.09467 8.39406C7.09467 9.17332 7.66208 9.9274 7.74208 10.0326C7.82208 10.1378 8.85912 11.7392 10.4487 12.4252C10.744 12.5523 11.0456 12.6641 11.3524 12.76C11.6759 12.8581 12.0178 12.8794 12.351 12.8222C12.6562 12.7763 13.2887 12.4385 13.4206 12.0696C13.5525 11.7007 13.5539 11.3822 13.5139 11.3155C13.4739 11.2489 13.3732 11.2015 13.2147 11.1185Z" fill="white"/>
</g>
<defs>
<clipPath id="clip0_404_51231">
<rect width="20" height="20" fill="white"/>
</clipPath>
</defs>
</svg>
