<svg width="16" height="16" viewBox="0 0 16 16" fill="none" xmlns="http://www.w3.org/2000/svg">
<g clip-path="url(#clip0_309_51651)">
<g clip-path="url(#clip1_309_51651)">
<path d="M16.0019 12.48V12.98C15.9989 13.0199 15.9989 13.06 16.0019 13.1C15.9574 13.43 15.8413 13.7462 15.6619 14.0267C15.4444 14.3874 15.1344 14.6833 14.7639 14.8838C14.3935 15.0843 13.9761 15.1819 13.5552 15.1666H2.22184C1.86861 15.1478 1.5247 15.0463 1.21785 14.8703C0.911009 14.6943 0.649784 14.4487 0.455158 14.1533C0.173738 13.7686 0.0165515 13.307 0.00463737 12.8304C-0.00727673 12.3539 0.126666 11.885 0.388508 11.4867L4.43514 4.47332C4.97514 3.54666 5.49519 2.6 6.06852 1.69334C6.37863 1.23781 6.83878 0.90556 7.36873 0.754493C7.89869 0.603425 8.46482 0.643127 8.9685 0.866675C9.46315 1.09548 9.87187 1.47617 10.1352 1.95335C11.5129 4.35779 12.8974 6.76001 14.2885 9.16001C14.5418 9.58668 14.7952 10.02 15.0352 10.4533C15.4653 11.0719 15.7918 11.7564 16.0019 12.48ZM8.88183 6.16664C8.88183 6.02664 8.88183 5.89332 8.88183 5.75999C8.87209 5.55281 8.78891 5.35587 8.64721 5.2044C8.50552 5.05294 8.31455 4.95685 8.10848 4.93333C7.91052 4.90552 7.70907 4.94755 7.53874 5.05218C7.3684 5.15681 7.2399 5.3175 7.17521 5.50665C7.11449 5.72332 7.09187 5.94891 7.10848 6.17332C7.14848 7.00665 7.20187 7.83999 7.25521 8.67999C7.25521 9.13332 7.3018 9.58666 7.34847 10.0133C7.36374 10.1761 7.44202 10.3264 7.56657 10.4323C7.69111 10.5381 7.85206 10.5911 8.01513 10.58C8.17591 10.5818 8.332 10.5255 8.45451 10.4213C8.57702 10.3172 8.65769 10.1723 8.6818 10.0133C8.6818 9.85999 8.6818 9.69998 8.6818 9.54665L8.88183 6.16664ZM8.88183 12.1666C8.88629 12.0494 8.86724 11.9325 8.82584 11.8227C8.78445 11.713 8.72153 11.6126 8.64079 11.5275C8.56004 11.4424 8.46315 11.3743 8.35571 11.3272C8.24827 11.2802 8.13243 11.255 8.01513 11.2533C7.79239 11.2726 7.58504 11.3748 7.43392 11.5395C7.2828 11.7043 7.19897 11.9197 7.19897 12.1433C7.19897 12.3669 7.2828 12.5824 7.43392 12.7471C7.58504 12.9119 7.79239 13.014 8.01513 13.0333C8.2462 13.0281 8.46595 12.9322 8.62687 12.7663C8.78779 12.6003 8.87697 12.3778 8.87516 12.1467L8.88183 12.1666Z" fill="#EF4444"/>
<path d="M8.8802 6.16668L8.68017 9.58001C8.68017 9.73334 8.68017 9.89335 8.68017 10.0467C8.65606 10.2057 8.57539 10.3506 8.45288 10.4547C8.33037 10.5588 8.17428 10.6152 8.0135 10.6134C7.85043 10.6245 7.68948 10.5715 7.56494 10.4656C7.44039 10.3598 7.36211 10.2094 7.34684 10.0467C7.30017 9.60002 7.28024 9.14669 7.25358 8.71335C7.20024 7.87335 7.14685 7.04001 7.10685 6.20668C7.09024 5.98227 7.11286 5.75669 7.17358 5.54001C7.23827 5.35087 7.36677 5.19018 7.5371 5.08554C7.70744 4.98091 7.90889 4.93889 8.10685 4.96669C8.31292 4.99021 8.50389 5.0863 8.64558 5.23777C8.78728 5.38923 8.87046 5.58617 8.8802 5.79335C8.8802 5.92668 8.8802 6.06005 8.8802 6.20005V6.16668Z" fill="white"/>
<path d="M8.87199 12.1467C8.86849 12.3778 8.77427 12.5982 8.60962 12.7603C8.44496 12.9225 8.22312 13.0134 7.99202 13.0133C7.76928 12.994 7.56184 12.8919 7.41073 12.7272C7.25961 12.5624 7.17578 12.3469 7.17578 12.1233C7.17578 11.8997 7.25961 11.6843 7.41073 11.5195C7.56184 11.3548 7.76928 11.2526 7.99202 11.2334C8.11045 11.2333 8.22767 11.2571 8.33667 11.3034C8.44567 11.3497 8.54414 11.4175 8.6263 11.5028C8.70847 11.588 8.77265 11.689 8.81486 11.7997C8.85707 11.9103 8.87647 12.0283 8.87199 12.1467Z" fill="white"/>
</g>
</g>
<defs>
<clipPath id="clip0_309_51651">
<rect width="16" height="16" fill="white"/>
</clipPath>
<clipPath id="clip1_309_51651">
<rect width="16" height="14.5" fill="white" transform="translate(0 0.666672)"/>
</clipPath>
</defs>
</svg>
