<svg width="101" height="100" viewBox="0 0 101 100" fill="none" xmlns="http://www.w3.org/2000/svg">
<g clip-path="url(#clip0_309_51609)">
<path d="M100.5 50.0012C100.409 63.2024 95.1013 75.8321 85.7344 85.1348C76.3674 94.4376 63.7016 99.6584 50.5 99.6584C37.2984 99.6584 24.6326 94.4376 15.2656 85.1348C5.89866 75.8321 0.590803 63.2024 0.5 50.0012C0.5 22.3074 22.973 0 50.4988 0C78.1997 0 100.5 22.4635 100.5 50.0012Z" fill="#D6DCE8"/>
<path d="M7.59349 88.4371C8.05881 88.3494 8.53968 88.4014 8.97551 88.5865C9.41133 88.7717 9.78261 89.0816 10.0426 89.4774C10.3025 89.8732 10.4395 90.3371 10.4363 90.8106C10.4331 91.2841 10.2898 91.746 10.0245 92.1382C9.75918 92.5304 9.38372 92.8354 8.94542 93.0146C8.50712 93.1937 8.02559 93.2392 7.56149 93.1452C7.0974 93.0512 6.67151 92.822 6.33748 92.4863C6.00346 92.1507 5.77624 91.7237 5.68446 91.2592C5.62436 90.9485 5.62607 90.6291 5.6895 90.3191C5.75293 90.0091 5.87683 89.7146 6.05412 89.4525C6.23141 89.1904 6.45862 88.9658 6.72275 88.7916C6.98689 88.6174 7.28277 88.4969 7.59349 88.4371Z" fill="#D6DCE8"/>
<path d="M3.84168 83.907C4.13823 83.8509 4.44473 83.884 4.72254 84.0019C5.00035 84.1198 5.23701 84.3174 5.4027 84.5696C5.56838 84.8219 5.65566 85.1176 5.65353 85.4194C5.6514 85.7211 5.55995 86.0155 5.39072 86.2654C5.2215 86.5153 4.98206 86.7095 4.70262 86.8235C4.42317 86.9375 4.11623 86.9662 3.8205 86.906C3.52477 86.8458 3.25348 86.6994 3.04086 86.4852C2.82825 86.271 2.68381 85.9986 2.62577 85.7025C2.58733 85.5047 2.58832 85.3013 2.62867 85.1039C2.66902 84.9065 2.74794 84.7191 2.86091 84.5522C2.97387 84.3854 3.11866 84.2426 3.28696 84.1318C3.45527 84.0211 3.64377 83.9447 3.84168 83.907Z" fill="#D6DCE8"/>
<path d="M97.2536 10.9621C97.719 10.8743 98.2 10.9262 98.636 11.1114C99.0719 11.2966 99.4433 11.6067 99.7033 12.0026C99.9633 12.3985 100.1 12.8625 100.097 13.3361C100.094 13.8097 99.9501 14.2717 99.6845 14.6639C99.419 15.0562 99.0433 15.361 98.6048 15.54C98.1663 15.719 97.6846 15.7642 97.2205 15.6698C96.7563 15.5755 96.3305 15.3458 95.9967 15.0099C95.6628 14.6739 95.4359 14.2466 95.3446 13.7819C95.2845 13.4713 95.2862 13.152 95.3497 12.8421C95.4132 12.5323 95.5371 12.238 95.7144 11.9761C95.8917 11.7142 96.1189 11.4898 96.383 11.3158C96.6472 11.1418 96.943 11.0216 97.2536 10.9621Z" fill="#D6DCE8"/>
<path d="M93.4987 6.42962C93.7953 6.37312 94.1019 6.40574 94.38 6.52332C94.658 6.6409 94.895 6.83819 95.061 7.09031C95.2271 7.34244 95.3147 7.63808 95.3129 7.93995C95.3111 8.24183 95.2199 8.53642 95.0508 8.78653C94.8818 9.03664 94.6425 9.23109 94.363 9.34532C94.0836 9.45956 93.7766 9.48846 93.4807 9.4284C93.1849 9.36834 92.9135 9.22202 92.7007 9.00787C92.4879 8.79372 92.3433 8.52134 92.2852 8.22511C92.2088 7.82617 92.2936 7.41321 92.5211 7.07668C92.7486 6.74016 93.1001 6.50749 93.4987 6.42962Z" fill="#D6DCE8"/>
<path d="M89.4442 16.8476H12.7688C8.23011 16.8476 4.55078 20.527 4.55078 25.0656V72.9614C4.55078 77.5001 8.23011 81.1795 12.7688 81.1795H89.4442C93.9829 81.1795 97.6622 77.5001 97.6622 72.9614V25.0656C97.6622 20.527 93.9829 16.8476 89.4442 16.8476Z" fill="#F1F3F9"/>
<path d="M97.6622 27.0314V25.068C97.6622 22.8878 96.7962 20.797 95.2545 19.2553C93.7129 17.7137 91.622 16.8476 89.4418 16.8476H12.7688C11.6894 16.8476 10.6206 17.0603 9.62335 17.4734C8.62614 17.8866 7.72009 18.4921 6.95694 19.2555C6.1938 20.0188 5.58852 20.9251 5.17566 21.9224C4.76281 22.9197 4.55047 23.9886 4.55078 25.068V27.0314H97.6622Z" fill="url(#paint0_linear_309_51609)"/>
<path d="M12.0903 22.3334C12.0909 22.5131 12.056 22.6912 11.9875 22.8574C11.919 23.0235 11.8183 23.1745 11.6912 23.3016C11.5641 23.4287 11.4131 23.5294 11.247 23.5979C11.0808 23.6664 10.9027 23.7013 10.723 23.7007C10.3574 23.7032 10.0057 23.5607 9.745 23.3044C9.48428 23.0482 9.33578 22.699 9.33203 22.3334C9.33451 21.9653 9.48185 21.6129 9.74217 21.3526C10.0025 21.0923 10.3549 20.9449 10.723 20.9424C11.0886 20.9462 11.4377 21.0947 11.694 21.3554C11.9503 21.6161 12.0928 21.9678 12.0903 22.3334Z" fill="url(#paint1_linear_309_51609)"/>
<path d="M17.3286 22.3334C17.3292 22.5131 17.2943 22.6912 17.2258 22.8574C17.1573 23.0235 17.0566 23.1745 16.9295 23.3016C16.8024 23.4287 16.6514 23.5294 16.4853 23.5979C16.3191 23.6664 16.141 23.7013 15.9613 23.7007C15.5957 23.7032 15.244 23.5607 14.9833 23.3044C14.7226 23.0482 14.5741 22.699 14.5703 22.3334C14.5728 21.9653 14.7201 21.6129 14.9805 21.3526C15.2408 21.0923 15.5931 20.9449 15.9613 20.9424C16.3268 20.9462 16.676 21.0947 16.9323 21.3554C17.1886 21.6161 17.3311 21.9678 17.3286 22.3334Z" fill="url(#paint2_linear_309_51609)"/>
<path d="M22.5669 22.3334C22.5675 22.5131 22.5325 22.6912 22.464 22.8574C22.3956 23.0235 22.2949 23.1745 22.1678 23.3016C22.0407 23.4287 21.8897 23.5294 21.7235 23.5979C21.5574 23.6664 21.3793 23.7013 21.1996 23.7007C20.834 23.7032 20.4823 23.5607 20.2216 23.3044C19.9608 23.0482 19.8123 22.699 19.8086 22.3334C19.8111 21.9653 19.9584 21.6129 20.2187 21.3526C20.4791 21.0923 20.8314 20.9449 21.1996 20.9424C21.5651 20.9462 21.9143 21.0947 22.1706 21.3554C22.4269 21.6161 22.5694 21.9678 22.5669 22.3334Z" fill="url(#paint3_linear_309_51609)"/>
<path d="M90.7023 93.9039C90.1862 94.372 89.5827 94.7335 88.9265 94.9678C88.2703 95.2021 87.5743 95.3045 86.8785 95.2691C86.1826 95.2337 85.5006 95.0612 84.8715 94.7616C84.2425 94.462 83.6788 94.0411 83.2129 93.523L72.88 81.998C72.7167 81.8191 72.5905 81.6097 72.5085 81.3819C72.4265 81.154 72.3904 80.9122 72.4023 80.6703C72.4141 80.4284 72.4737 80.1913 72.5777 79.9725C72.6816 79.7538 72.8277 79.5578 73.0078 79.3958L73.0267 79.3769L66.5781 72.3488L67.3564 71.7881C68.947 70.6121 70.3958 69.2554 71.6736 67.7454L78.1127 74.7782L78.1316 74.7617C78.4948 74.4358 78.9721 74.2666 79.4594 74.2909C79.9468 74.3153 80.4049 74.5312 80.7337 74.8918L91.0784 86.4239C91.5453 86.9395 91.906 87.5421 92.1399 88.1973C92.3737 88.8524 92.4761 89.5472 92.4411 90.2419C92.4062 90.9366 92.2346 91.6177 91.9363 92.246C91.6379 92.8744 91.2186 93.4377 90.7023 93.9039Z" fill="url(#paint4_linear_309_51609)"/>
<path d="M72.925 32.6828C62.6277 21.302 44.9616 20.4126 33.5595 30.7312C29.3922 34.5151 26.4662 39.4706 25.1655 44.9471C23.8649 50.4237 24.2504 56.1656 26.2714 61.4192C28.2924 66.6728 31.8545 71.1926 36.4902 74.3855C41.1259 77.5784 46.6186 79.2953 52.2475 79.3107C67.6238 79.3107 80.1613 66.6738 80.1613 51.3969C80.1645 44.4753 77.584 37.8017 72.925 32.6828ZM52.2452 73.1555C47.9549 73.1456 43.7636 71.865 40.2005 69.4754C36.6373 67.0857 33.8619 63.694 32.2246 59.7284C30.5873 55.7627 30.1615 51.401 31.0009 47.1936C31.8403 42.9862 33.9073 39.1217 36.941 36.088C39.9748 33.0543 43.8392 30.9873 48.0466 30.1479C52.254 29.3085 56.6158 29.7343 60.5814 31.3716C64.547 33.0089 67.9387 35.7843 70.3284 39.3474C72.7181 42.9106 73.9986 47.1018 74.0085 51.3921C74.0085 63.2035 64.3072 73.1555 52.2452 73.1555Z" fill="url(#paint5_linear_309_51609)"/>
<path d="M11.8513 3.67609C12.3167 3.5883 12.7977 3.64025 13.2336 3.82541C13.6696 4.01058 14.041 4.32064 14.3009 4.71655C14.5609 5.11245 14.6979 5.57648 14.6945 6.0501C14.6912 6.52373 14.5477 6.98576 14.2822 7.37797C14.0167 7.77017 13.641 8.07499 13.2025 8.254C12.764 8.433 12.2823 8.47817 11.8181 8.38383C11.354 8.28949 10.9282 8.05987 10.5943 7.72388C10.2605 7.38789 10.0336 6.96058 9.94224 6.49584C9.88216 6.18532 9.8839 5.86601 9.94736 5.55617C10.0108 5.24632 10.1347 4.95203 10.3121 4.69013C10.4894 4.42822 10.7166 4.20383 10.9807 4.02983C11.2448 3.85583 11.5406 3.73564 11.8513 3.67609Z" fill="#D6DCE8"/>
</g>
<defs>
<linearGradient id="paint0_linear_309_51609" x1="4.55078" y1="21.9407" x2="97.6622" y2="21.9407" gradientUnits="userSpaceOnUse">
<stop stop-color="#AAB2C5"/>
<stop offset="1" stop-color="#D6DCE8"/>
</linearGradient>
<linearGradient id="paint1_linear_309_51609" x1="9.33203" y1="22.3216" x2="12.0903" y2="22.3216" gradientUnits="userSpaceOnUse">
<stop stop-color="#D6DCE8"/>
<stop offset="1" stop-color="#F1F3F9"/>
</linearGradient>
<linearGradient id="paint2_linear_309_51609" x1="14.5703" y1="22.3216" x2="17.3286" y2="22.3216" gradientUnits="userSpaceOnUse">
<stop stop-color="#D6DCE8"/>
<stop offset="1" stop-color="#F1F3F9"/>
</linearGradient>
<linearGradient id="paint3_linear_309_51609" x1="19.8086" y1="22.3216" x2="22.5669" y2="22.3216" gradientUnits="userSpaceOnUse">
<stop stop-color="#D6DCE8"/>
<stop offset="1" stop-color="#F1F3F9"/>
</linearGradient>
<linearGradient id="paint4_linear_309_51609" x1="66.5781" y1="81.5083" x2="92.4552" y2="81.5083" gradientUnits="userSpaceOnUse">
<stop stop-color="#989FB0"/>
<stop offset="1" stop-color="#AAB2C5"/>
</linearGradient>
<linearGradient id="paint5_linear_309_51609" x1="24.3976" y1="51.4229" x2="80.1661" y2="51.4229" gradientUnits="userSpaceOnUse">
<stop stop-color="#989FB0"/>
<stop offset="1" stop-color="#AAB2C5"/>
</linearGradient>
<clipPath id="clip0_309_51609">
<rect width="100" height="100" fill="white" transform="translate(0.5)"/>
</clipPath>
</defs>
</svg>
