<svg width="20" height="20" viewBox="0 0 20 20" fill="none" xmlns="http://www.w3.org/2000/svg">
<g clip-path="url(#clip0_309_51648)">
<path d="M20.0014 15.6V16.225C19.9976 16.2749 19.9976 16.325 20.0014 16.375C19.9457 16.7874 19.8007 17.1827 19.5764 17.5333C19.3045 17.9842 18.917 18.3541 18.4539 18.6047C17.9909 18.8553 17.4692 18.9773 16.943 18.9583H2.77632C2.33478 18.9347 1.9049 18.8078 1.52134 18.5878C1.13779 18.3678 0.811253 18.0609 0.567971 17.6916C0.216195 17.2107 0.0197128 16.6337 0.00482015 16.038C-0.0100725 15.4423 0.157356 14.8563 0.484658 14.3583L5.54295 5.59162C6.21795 4.43328 6.86801 3.24996 7.58467 2.11663C7.97231 1.54722 8.5475 1.13191 9.20994 0.943078C9.87238 0.754243 10.58 0.803871 11.2097 1.08331C11.828 1.36931 12.3389 1.84518 12.668 2.44164C14.3902 5.4472 16.1207 8.44998 17.8596 11.45C18.1763 11.9833 18.493 12.525 18.793 13.0666C19.3306 13.8399 19.7388 14.6955 20.0014 15.6ZM11.1013 7.70827C11.1013 7.53327 11.1013 7.36661 11.1013 7.19994C11.0891 6.94097 10.9852 6.6948 10.808 6.50547C10.6309 6.31614 10.3922 6.19602 10.1346 6.16662C9.88717 6.13187 9.63536 6.1844 9.42244 6.31519C9.20953 6.44598 9.0489 6.64684 8.96804 6.88327C8.89214 7.15412 8.86386 7.4361 8.88462 7.71661C8.93462 8.75827 9.00136 9.79995 9.06803 10.8499C9.06803 11.4166 9.12628 11.9833 9.18461 12.5166C9.2037 12.72 9.30155 12.908 9.45723 13.0403C9.61291 13.1726 9.8141 13.2389 10.0179 13.2249C10.2189 13.2272 10.414 13.1568 10.5672 13.0266C10.7203 12.8964 10.8211 12.7153 10.8513 12.5166C10.8513 12.3249 10.8513 12.1249 10.8513 11.9333L11.1013 7.70827ZM11.1013 15.2083C11.1069 15.0617 11.0831 14.9156 11.0313 14.7784C10.9796 14.6412 10.9009 14.5157 10.8 14.4093C10.6991 14.3029 10.578 14.2179 10.4437 14.159C10.3094 14.1002 10.1646 14.0687 10.0179 14.0666C9.73951 14.0907 9.48032 14.2184 9.29142 14.4244C9.10252 14.6303 8.99774 14.8996 8.99774 15.1791C8.99774 15.4586 9.10252 15.7279 9.29142 15.9339C9.48032 16.1398 9.73951 16.2675 10.0179 16.2916C10.3068 16.2851 10.5815 16.1652 10.7826 15.9578C10.9838 15.7504 11.0952 15.4722 11.093 15.1833L11.1013 15.2083Z" fill="#EF4444"/>
<path d="M11.0983 7.70832L10.8483 11.975C10.8483 12.1666 10.8483 12.3667 10.8483 12.5583C10.8181 12.757 10.7173 12.9382 10.5641 13.0683C10.411 13.1985 10.2159 13.269 10.0149 13.2667C9.81108 13.2806 9.6099 13.2143 9.45422 13.082C9.29854 12.9497 9.20068 12.7618 9.18159 12.5583C9.12326 12 9.09835 11.4333 9.06502 10.8917C8.99835 9.84166 8.93161 8.79998 8.88161 7.75831C8.86084 7.47781 8.88912 7.19582 8.96502 6.92498C9.04588 6.68855 9.20651 6.48769 9.41943 6.3569C9.63234 6.22611 9.88416 6.17357 10.1316 6.20833C10.3892 6.23773 10.6279 6.35784 10.805 6.54717C10.9821 6.7365 11.0861 6.98268 11.0983 7.24165C11.0983 7.40832 11.0983 7.57502 11.0983 7.75002V7.70832Z" fill="white"/>
<path d="M11.0929 15.1833C11.0885 15.4721 10.9708 15.7476 10.765 15.9503C10.5591 16.153 10.2818 16.2666 9.99296 16.2666C9.71453 16.2425 9.45524 16.1149 9.26634 15.9089C9.07744 15.7029 8.97266 15.4336 8.97266 15.1541C8.97266 14.8746 9.07744 14.6053 9.26634 14.3993C9.45524 14.1934 9.71453 14.0657 9.99296 14.0416C10.141 14.0415 10.2875 14.0713 10.4238 14.1292C10.56 14.187 10.6831 14.2718 10.7858 14.3784C10.8885 14.485 10.9687 14.6112 11.0215 14.7495C11.0743 14.8878 11.0985 15.0354 11.0929 15.1833Z" fill="white"/>
</g>
<defs>
<clipPath id="clip0_309_51648">
<rect width="20" height="18.125" fill="white" transform="translate(0 0.833313)"/>
</clipPath>
</defs>
</svg>
